<svg width="16" height="16" viewBox="0 0 16 16" fill="none" xmlns="http://www.w3.org/2000/svg">
<path d="M9.06058 7.99999L12.0293 5.03124C12.1702 4.89059 12.2495 4.69973 12.2497 4.50065C12.2498 4.30157 12.1709 4.11057 12.0303 3.96968C11.8896 3.82878 11.6988 3.74953 11.4997 3.74935C11.3006 3.74917 11.1096 3.82809 10.9687 3.96874L7.99996 6.93749L5.03121 3.96874C4.89031 3.82784 4.69922 3.74869 4.49996 3.74869C4.3007 3.74869 4.1096 3.82784 3.96871 3.96874C3.82781 4.10964 3.74866 4.30073 3.74866 4.49999C3.74866 4.69925 3.82781 4.89034 3.96871 5.03124L6.93746 7.99999L3.96871 10.9687C3.82781 11.1096 3.74866 11.3007 3.74866 11.5C3.74866 11.6992 3.82781 11.8903 3.96871 12.0312C4.1096 12.1721 4.3007 12.2513 4.49996 12.2513C4.69922 12.2513 4.89031 12.1721 5.03121 12.0312L7.99996 9.06249L10.9687 12.0312C11.1096 12.1721 11.3007 12.2513 11.5 12.2513C11.6992 12.2513 11.8903 12.1721 12.0312 12.0312C12.1721 11.8903 12.2513 11.6992 12.2513 11.5C12.2513 11.3007 12.1721 11.1096 12.0312 10.9687L9.06058 7.99999Z" fill="black"/>
</svg>
